<svg width="28" height="28" viewBox="0 0 28 28" fill="none" xmlns="http://www.w3.org/2000/svg">
<path d="M14 0C6.2685 0 0 6.2685 0 14C0 21.7315 6.2685 28 14 28C21.7315 28 28 21.7315 28 14C28 6.2685 21.7315 0 14 0ZM21.077 11.2525C21.2905 15.9658 17.7753 21.2205 11.5523 21.2205C9.66 21.2205 7.8995 20.6652 6.41667 19.7143C8.19467 19.9243 9.96917 19.4297 11.3773 18.3272C9.912 18.3003 8.67417 17.3308 8.246 15.9997C8.77217 16.1 9.29017 16.0708 9.76033 15.9425C8.14917 15.6182 7.03617 14.1668 7.07233 12.614C7.525 12.8648 8.04067 13.0153 8.59017 13.0328C7.098 12.0353 6.67567 10.0648 7.553 8.55867C9.205 10.5863 11.6748 11.9198 14.4597 12.0598C13.9708 9.9645 15.561 7.945 17.7252 7.945C18.6877 7.945 19.5592 8.35217 20.1705 9.00317C20.9335 8.85383 21.6522 8.57383 22.2985 8.19C22.0477 8.97283 21.5168 9.6285 20.825 10.0438C21.5028 9.96217 22.1492 9.7825 22.7488 9.51533C22.3008 10.1897 21.7338 10.78 21.077 11.2525Z" fill="#737373"/>
</svg>
