<svg width="31" height="27" viewBox="0 0 31 27" fill="none" xmlns="http://www.w3.org/2000/svg">
<path d="M30.6018 25.0397L23.6166 18.9504C25.5004 16.9518 26.6256 14.3917 26.6256 11.6058C26.6256 5.20263 20.6646 0.0107422 13.3128 0.0107422C5.96105 0.0107422 0 5.20263 0 11.6058C0 18.0089 5.96105 23.2008 13.3128 23.2008C16.5241 23.2008 19.4698 22.2098 21.7708 20.5581L28.7559 26.6419C29.5714 27.2915 30.3363 26.8731 30.6018 26.6419C31.1328 26.1849 31.1328 25.4967 30.6018 25.0397ZM2.59808 11.6058C2.59808 6.45242 7.396 2.27359 13.3128 2.27359C19.2296 2.27359 24.0339 6.45242 24.0339 11.6058C24.0339 16.7591 19.2359 20.9379 13.3191 20.9379C7.40232 20.9379 2.59808 16.7591 2.59808 11.6058Z" fill="white"/>
</svg>
