<svg width="41" height="40" viewBox="0 0 41 40" fill="none" xmlns="http://www.w3.org/2000/svg">
<path d="M33.3125 25C29.069 25 25.625 28.3583 25.625 32.5C25.625 36.6417 29.069 40 33.3125 40C37.5526 40 41 36.6417 41 32.5C41 28.3583 37.5526 25 33.3125 25ZM37.5833 33.3333H29.0417V31.6667H37.5833V33.3333ZM34.1667 6.66667H0V3.33333H9.75629C11.2938 3.33333 12.5426 1.50167 12.5426 0H21.6241C21.6241 1.50167 22.8712 3.33333 24.4104 3.33333H34.1667V6.66667ZM22.2083 32.5C22.2083 30.3883 22.8404 28.4217 23.9167 26.7533V16.6667C23.9167 15.7467 24.6803 15 25.625 15C26.5697 15 27.3333 15.7467 27.3333 16.6667V23.3867C28.835 22.445 30.5809 21.85 32.4583 21.71V10H1.70833V40H25.3175C23.3973 38.0517 22.2083 35.4117 22.2083 32.5ZM10.25 33.3333C10.25 34.2533 9.48637 35 8.54167 35C7.59696 35 6.83333 34.2533 6.83333 33.3333V16.6667C6.83333 15.7467 7.59696 15 8.54167 15C9.48637 15 10.25 15.7467 10.25 16.6667V33.3333ZM18.7917 33.3333C18.7917 34.2533 18.028 35 17.0833 35C16.1386 35 15.375 34.2533 15.375 33.3333V16.6667C15.375 15.7467 16.1386 15 17.0833 15C18.028 15 18.7917 15.7467 18.7917 16.6667V33.3333Z" fill="white"/>
</svg>
