<svg width="24" height="24" viewBox="0 0 24 24" fill="none" xmlns="http://www.w3.org/2000/svg">
<path d="M19.5 15C17.016 15 15 17.015 15 19.5C15 21.985 17.016 24 19.5 24C21.982 24 24 21.985 24 19.5C24 17.015 21.982 15 19.5 15ZM22 20H17V19H22V20ZM20 4H0V2H5.711C6.611 2 7.342 0.901 7.342 0H12.658C12.658 0.901 13.388 2 14.289 2H20V4ZM13 19.5C13 18.233 13.37 17.053 14 16.052V10C14 9.448 14.447 9 15 9C15.553 9 16 9.448 16 10V14.032C16.879 13.467 17.901 13.11 19 13.026V6H1V24H14.82C13.696 22.831 13 21.247 13 19.5ZM6 20C6 20.552 5.553 21 5 21C4.447 21 4 20.552 4 20V10C4 9.448 4.447 9 5 9C5.553 9 6 9.448 6 10V20ZM11 20C11 20.552 10.553 21 10 21C9.447 21 9 20.552 9 20V10C9 9.448 9.447 9 10 9C10.553 9 11 9.448 11 10V20Z" fill="white"/>
</svg>
