<svg width="215" height="239" viewBox="0 0 215 239" fill="none" xmlns="http://www.w3.org/2000/svg">
<path d="M30.25 142.181C49.8125 157.935 77.1875 167.788 107.5 167.788C166.75 167.788 215 130.133 215 83.8939C215 37.6547 166.75 0 107.5 0C48.25 0 0 37.6547 0 83.8939C0 105.94 11 126.036 28.875 141.01C29.25 141.498 29.75 141.839 30.25 142.181ZM107.5 158.13C84.125 158.13 62.625 151.497 46.0625 140.522C73.9375 133.303 84.25 124.524 88.0625 118.671C93.375 120.476 99.3125 121.451 105.875 121.5C106 121.5 106.188 121.5 106.313 121.5C106.375 121.5 106.75 121.5 106.875 121.5C107 121.5 107.187 121.5 107.312 121.5C114.437 121.402 120.875 120.28 126.437 118.183C130 124.036 140.125 133.108 168.813 140.522C152.313 151.497 130.875 158.13 107.5 158.13ZM72.75 68.3833C72.75 68.2857 72.75 68.1882 72.75 68.0906C74.25 42.6786 98.25 40.6788 105.625 40.6788C105.938 40.6788 106.187 40.6788 106.375 40.6788C106.562 40.6788 106.687 40.6788 106.875 40.6788C107.063 40.6788 107.25 40.6788 107.625 40.6788C114.937 40.6788 139 42.6786 140.5 68.0906C140.5 68.1882 140.5 68.2857 140.5 68.3833C140.562 68.6271 143.625 92.1369 129.562 104.477C124 109.355 116.562 111.793 106.875 111.842C106.812 111.842 106.687 111.842 106.687 111.842C106.625 111.842 106.562 111.842 106.5 111.842C96.75 111.745 89.375 109.355 83.8125 104.477C69.6875 92.2345 72.6875 68.6271 72.75 68.3833ZM107.5 9.65755C159.938 9.65755 202.625 42.9712 202.625 83.8939C202.625 102.624 193.625 119.793 178.937 132.864C138.562 123.695 137 112.574 137 112.428C137 112.623 137 112.671 137 112.671H136.562C137.313 112.086 138.063 111.501 138.813 110.867C156 95.7951 153.125 69.9929 152.812 67.4565C151.125 40.5324 127.437 30.9724 107.625 30.9724C107.25 30.9724 106.875 30.9724 106.625 30.9724C106.375 30.9724 106.062 30.9724 105.625 30.9724C85.8125 30.9724 62.0625 40.5324 60.4375 67.4565C60.125 69.9441 57.3125 95.7463 74.4375 110.867C75.4375 111.745 76.5 112.574 77.5625 113.354C76.25 116.183 69.625 125.158 36.0625 132.816C21.3125 119.744 12.375 102.624 12.375 83.8939C12.375 42.9712 55.0625 9.65755 107.5 9.65755Z" fill="#2C2F33"/>
<path d="M29 205.101H185.937C189.375 205.101 192.125 202.955 192.125 200.272C192.125 197.59 189.375 195.444 185.937 195.444H29C25.5625 195.444 22.8125 197.59 22.8125 200.272C22.8125 202.906 25.625 205.101 29 205.101Z" fill="#5D5F5D"/>
<path d="M164.562 234.171C164.562 231.489 161.812 229.343 158.375 229.343H56.625C53.1875 229.343 50.4375 231.489 50.4375 234.171C50.4375 236.854 53.1875 239 56.625 239H158.437C161.812 239 164.562 236.805 164.562 234.171Z" fill="#5D5F5D"/>
</svg>
